<svg width="20" height="20" viewBox="0 0 20 20" fill="none" xmlns="http://www.w3.org/2000/svg">
<path d="M11 2C11 2.55228 11.4477 3 12 3H15.5858L10.2929 8.29289C9.90237 8.68342 9.90237 9.31658 10.2929 9.70711C10.6834 10.0976 11.3166 10.0976 11.7071 9.70711L17 4.41421V8C17 8.55228 17.4477 9 18 9C18.5523 9 19 8.55228 19 8V2C19 1.44772 18.5523 1 18 1H12C11.4477 1 11 1.44772 11 2Z" fill="black"/>
<path d="M3 6C3 5.44772 3.44772 5 4 5H7C7.55228 5 8 4.55228 8 4C8 3.44772 7.55228 3 7 3H4C2.34315 3 1 4.34315 1 6V16C1 17.6569 2.34315 19 4 19H14C15.6569 19 17 17.6569 17 16V13C17 12.4477 16.5523 12 16 12C15.4477 12 15 12.4477 15 13V16C15 16.5523 14.5523 17 14 17H4C3.44772 17 3 16.5523 3 16V6Z" fill="black"/>
</svg>
